<svg width="413" height="396" viewBox="0 0 413 396" fill="none" xmlns="http://www.w3.org/2000/svg">
<path d="M413 47.9311C412.884 61.7655 412.227 75.538 408.564 88.9859C406.091 98.0825 402.482 106.746 398.294 115.171C393.317 125.202 387.869 134.987 382.266 144.687C378.843 150.614 374.763 155.901 367.182 156.48C361.309 156.936 356.061 154.873 351.633 151.233C344.408 145.289 338.033 138.55 333.983 129.94C333.782 129.523 333.666 129.036 332.785 129.013C331.873 134.508 332.183 140.096 332.785 145.568C334.122 157.717 335.397 169.944 337.839 181.9C339.029 187.689 339.022 192.496 336.085 197.535C334.54 200.186 333.898 203.363 332.345 205.998C327.438 214.322 326.85 223.086 328.303 232.438C330.119 244.116 329.841 255.987 330.421 267.766C331.186 283.231 332.793 298.611 334.4 313.999C335.119 320.87 335.621 327.756 336.124 334.65C336.201 335.67 336.479 336.628 334.911 337.509C322.677 344.38 310.39 351.166 298.915 359.32C269.773 380.025 239.967 399.779 210.207 419.588C206.467 422.077 204.072 420.902 200.996 418.939C175.587 402.732 150.588 385.953 126.044 368.471C112.018 358.47 97.6292 348.925 82.645 340.446C77.7533 337.679 76.6483 335.229 77.4906 329.997C81.1304 307.167 81.7177 283.988 84.4456 261.026C85.968 248.274 86.1689 235.367 87.0421 222.53C87.1658 220.636 86.5939 219.075 85.8057 217.429C82.0268 209.492 78.217 201.562 74.9636 193.393C74.1831 191.414 74.2217 189.768 74.8168 187.673C77.2278 179.211 77.5988 170.245 79.9789 161.875C82.8305 151.882 78.9125 144.857 72.4212 138.117C70.837 139.964 69.0364 142.267 67.0349 144.377C62.6378 149.007 57.7616 152.972 51.5948 155.035C44.0061 157.578 39.2999 156.094 34.3464 149.764C30.498 144.849 27.4919 139.423 24.6094 133.959C17.8244 121.114 10.7303 108.408 6.29459 94.4578C1.34109 78.8149 -0.0885517 62.7625 0.00418163 46.4859C0.00418163 45.4811 0.104643 44.8087 1.372 44.4378C32.7545 35.2174 62.5992 22.2178 91.7715 7.58741C96.1377 5.40019 100.597 3.42165 104.986 1.25762C107.328 0.106045 109.793 -0.195373 112.296 0.113774C125.619 1.76771 139.05 2.80336 151.909 7.07732C154.598 7.97384 157.141 6.80681 159.59 6.1576C179.041 0.994843 198.871 -0.110358 218.816 0.9562C231.266 1.6286 243.607 3.69988 255.531 7.62605C256.52 7.95066 257.3 7.98157 258.251 7.65697C270.731 3.37528 283.76 2.19279 296.758 0.639324C301.921 0.0210298 306.225 1.24989 310.699 3.45256C342.847 19.3196 375.976 32.8138 410.125 43.7576C412.412 44.4919 413.015 45.4811 413 47.9234V47.9311Z" fill="#210C0C"/>
<path d="M218.692 201.631C218.607 202.93 218.376 204.213 218.012 205.457C217.904 205.844 216.807 208.564 216.621 206.763C216.328 203.935 216.212 201.09 216.119 198.246C216.073 196.855 216.088 195.433 216.019 194.05C215.949 192.666 215.439 191.128 215.053 189.783C214.249 186.978 213.136 184.265 211.73 181.715C210.988 180.37 210.138 179.056 209.048 177.974C207.943 176.869 206.575 176.196 205.177 175.555C203.283 174.689 201.305 174.025 199.288 173.507C183.152 169.372 166.916 169.14 151.105 175.532C148.903 176.42 146.816 177.595 144.962 179.079C143.347 180.37 142.01 181.954 140.843 183.662C139.97 184.937 139.05 188.346 137.466 188.732C137.056 186.993 137.914 185.478 138.501 183.91C139.236 181.954 139.784 179.929 140.542 177.982C143.053 171.544 146.43 165.538 150.449 159.92C151.268 158.768 152.11 157.64 152.968 156.511C159.706 147.639 166.661 138.967 171.623 128.928C173.184 125.767 174.505 122.497 175.579 119.143C175.896 118.154 176.221 117.118 176.97 116.407C177.565 115.843 179.559 115.225 179.891 116.423C180.015 116.871 179.837 117.342 179.667 117.775C177.187 123.966 174.976 130.35 171.939 136.285C169.575 140.899 166.909 144.988 163.547 148.945C160.889 152.083 158.076 155.097 155.487 158.304C152.071 162.532 149.212 167.1 146.415 171.752C146.221 172.077 146.028 172.471 146.198 172.803C146.453 173.275 147.18 173.128 147.612 172.803C150.727 170.469 154.776 169.874 158.485 169.07C163.006 168.089 167.604 167.447 172.218 167.169C177.241 166.86 182.295 166.968 187.302 167.486C190.092 167.78 192.843 168.359 195.579 168.962C197.171 169.31 201.769 171.15 203.175 170.068C203.562 169.774 203.801 169.318 204.017 168.885C204.821 167.262 205.378 165.531 206.204 163.923C206.367 165.299 206.544 166.675 206.676 168.058C206.784 169.302 206.738 171.188 207.418 172.27C208.816 174.481 211.683 176.065 213.275 178.275C215.81 181.792 217.131 186.19 217.974 190.394C218.468 192.875 218.731 195.41 218.754 197.945C218.762 199.189 218.77 200.426 218.685 201.639L218.692 201.631Z" fill="white"/>
<path d="M171.097 250.662C167.859 251.806 164.66 253.12 161.561 254.48C157.682 256.188 154.057 258.406 150.255 260.284C146.755 262.016 143.169 263.5 139.197 263.577C135.673 263.646 132.242 262.773 129.259 260.903C128.849 260.64 128.455 260.362 128.061 260.083C127.435 259.612 126.832 259.102 126.268 258.553C124.483 256.837 123.015 254.805 121.887 252.602C121.323 251.505 120.851 250.361 120.472 249.186C120.187 248.313 119.885 246.86 120.72 246.149C120.975 245.924 121.338 245.863 121.678 245.87C122.775 245.894 123.811 246.481 124.506 247.316C125.279 248.243 125.557 249.549 126.145 250.6C127.783 253.522 130.372 256.196 133.2 258.004C136.369 260.029 139.746 260.261 143.362 259.558C145.858 259.071 148.323 258.182 150.68 257.239C153.091 256.273 155.379 254.812 157.744 253.707C160.186 252.563 162.666 251.505 165.178 250.531C168.547 249.225 171.978 248.081 175.448 247.092C176.112 246.898 177.782 246.636 177.805 247.787C177.805 248.166 177.565 248.506 177.241 248.707C176.468 249.186 175.232 249.317 174.366 249.588C173.269 249.936 172.171 250.299 171.082 250.685L171.097 250.662Z" fill="white"/>
<path d="M192.828 250.879C196.63 252.223 200.385 253.761 204.025 255.353C208.585 257.355 212.835 259.968 217.294 262.17C221.405 264.203 225.609 265.942 230.269 266.035C234.403 266.112 238.437 265.092 241.938 262.897C242.417 262.588 242.888 262.263 243.336 261.931C244.264 261.235 245.083 260.416 245.972 259.674C246.791 258.994 247.332 258.082 247.958 257.208C248.089 257.023 248.228 256.814 248.189 256.59C248.143 256.32 247.857 256.15 247.579 256.15C247.301 256.15 247.046 256.273 246.806 256.389C243.661 257.912 240.863 260.045 237.494 261.08C233.491 262.317 229.442 262.101 225.385 261.312C222.448 260.74 219.558 259.697 216.791 258.584C213.963 257.448 211.274 255.74 208.5 254.441C205.725 253.143 202.719 251.86 199.775 250.716C195.818 249.186 191.8 247.841 187.72 246.682C186.939 246.458 184.976 246.149 184.945 247.493C184.938 247.934 185.231 248.344 185.602 248.575C186.514 249.132 187.959 249.294 188.979 249.611C190.27 250.013 191.553 250.446 192.835 250.894L192.828 250.879Z" fill="white"/>
<path d="M168.624 210.303C168.686 210.334 168.74 210.403 168.771 210.527C168.802 210.674 168.593 211.03 168.539 211.161C168.361 211.586 168.161 212.003 167.921 212.405C167.457 213.194 166.885 213.92 166.236 214.569C164.954 215.844 163.369 216.818 161.677 217.437C158.632 218.557 154.745 218.658 152.172 216.401C151.7 215.991 151.206 215.613 151.445 214.979C151.708 214.291 152.396 214.43 152.975 214.523C154.096 214.693 155.224 214.824 156.36 214.855C158.663 214.925 160.974 214.608 163.114 213.735C164.258 213.271 165.34 212.66 166.337 211.934C166.816 211.586 167.287 211.223 167.736 210.844C167.882 210.72 168.361 210.195 168.624 210.311V210.303Z" fill="white"/>
<path d="M182.751 209.917C182.681 209.94 182.627 210.009 182.588 210.125C182.542 210.264 182.727 210.635 182.774 210.774C182.921 211.215 183.098 211.64 183.307 212.057C183.717 212.877 184.242 213.642 184.845 214.33C186.043 215.69 187.55 216.764 189.196 217.498C192.155 218.82 196.027 219.183 198.747 217.112C199.242 216.733 199.767 216.393 199.566 215.744C199.35 215.041 198.654 215.133 198.075 215.18C196.947 215.273 195.811 215.327 194.675 215.28C192.372 215.195 190.092 214.716 188.013 213.704C186.9 213.163 185.865 212.475 184.922 211.686C184.474 211.308 184.018 210.914 183.601 210.504C183.462 210.373 183.021 209.816 182.751 209.917Z" fill="white"/>
<path d="M318.149 186.22C318.211 180.795 317.469 175.354 316.858 169.975C315.568 158.583 314.648 147.222 312.245 135.984C312.044 135.049 311.704 133.967 310.792 133.681C309.641 133.318 308.636 134.5 308.033 135.543C305.182 140.428 302.84 145.598 299.942 150.46C294.386 159.781 286.365 166.219 275.414 167.811C257.223 170.454 237 163.444 223.221 151.596C220.284 149.076 217.557 145.962 214.481 143.736C215.053 154.286 226.892 161.867 234.797 167.084C244.047 173.182 254.109 178.376 261.744 186.584C269.255 194.66 273.521 205.403 275.043 216.231C276.257 224.864 275.337 234.192 273.637 242.694C272.122 250.268 267.748 257.943 261.327 262.394C266.102 259.326 271.048 256.876 275.631 253.445C280.128 250.083 284.394 246.404 288.397 242.462C297.964 233.041 306.325 222.074 311.82 209.785C314.362 204.097 316.858 198.269 317.724 192.071C317.994 190.123 318.118 188.168 318.141 186.22H318.149ZM254.696 235.522H254.148C254.148 235.522 254.155 235.529 254.163 235.529H254.696V235.522Z" fill="white"/>
<path d="M217.24 378.935C213.476 382.444 209.581 385.868 205.463 388.743C200.13 392.453 191.197 393.967 184.853 393.249C179.745 392.669 176.46 390.335 172.303 387.583C166.321 383.634 159.923 380.527 154.22 376.091C148.633 371.747 143.586 366.716 139.189 361.175C128.108 347.193 123.185 330.492 118.007 313.79C114.746 303.279 112.003 292.621 109.468 281.925C108.224 276.669 107.034 271.406 105.852 266.143C105.45 264.357 101.594 252.563 104.862 252.788C106.022 252.865 106.856 253.908 107.544 254.843C117.876 268.979 130.549 281.399 144.846 291.501C150.317 295.365 155.07 298.982 161.337 301.556C186.236 311.765 213.816 308.233 237.857 297.328C248.808 292.358 259.093 286.044 268.946 279.189C278.189 272.758 287.918 266.112 296.565 259.017C297.864 257.95 299.1 256.111 300.568 255.384C301.264 255.044 302.299 255.23 302.516 255.972C302.647 256.412 302.446 256.868 302.261 257.286C289.263 285.58 274.673 313.226 255.461 337.896C245.701 350.432 234.983 362.218 223.422 373.108C221.389 375.024 219.334 376.995 217.247 378.943L217.24 378.935Z" fill="#210C0C"/>
<path d="M304.069 256.32C304.231 256.83 304.247 257.456 304.185 257.981C300.306 289.282 292.833 320.475 279.317 349.072C277.694 352.511 276.334 356.174 274.711 359.552C272.988 363.13 269.302 366.183 266.427 368.849C252.246 381.98 234.851 390.559 218.492 400.46C215.045 402.546 211.367 404.502 207.41 405.375C203.059 406.333 199.721 403.992 196.035 401.812C192.874 399.934 189.675 398.04 187.055 395.459C186.081 394.493 185.193 393.45 184.304 392.398C181.816 389.462 180.077 387.97 180.378 384.067C180.695 379.963 182.418 376.617 183.693 372.799C186.8 366.005 191.723 360.1 197.256 355.139C204.095 349.01 211.838 344.025 219.148 338.491C226.907 332.609 233.862 325.646 240.925 318.945C257.548 303.179 273.251 286.477 288.907 269.767C293.142 265.246 297.377 260.725 301.627 256.219C302.013 255.802 302.485 255.361 303.057 255.392C303.59 255.423 303.907 255.817 304.077 256.327L304.069 256.32Z" fill="white"/>
<path d="M154.992 228.156C153.841 228.025 152.62 227.816 151.353 227.507C148.2 226.734 143.432 225.552 139.784 221.44C134.491 215.458 135.364 207.552 135.573 205.929C136.16 208.75 137.636 213.742 141.693 218.387C144.405 221.494 147.527 223.581 150.564 224.98C151.94 226.216 153.424 227.275 154.985 228.164L154.992 228.156Z" fill="#210C0C"/>
<path d="M130.635 154.27C116.578 157.802 101.493 153.961 91.1069 143.775C79.2062 132.096 77.2897 116.531 79.5384 100.726C80.4426 94.3573 84.1674 88.4062 89.6 84.9361C95.7204 81.0253 103.286 80.3452 110.527 79.8274C122.118 79.0004 135.364 78.0498 146.098 83.4753C146.554 83.7072 148.517 84.4801 148.547 85.0288C148.648 86.5282 145.881 87.5947 144.915 88.1821C142.976 89.3723 141.028 90.5625 139.081 91.7373C135.186 94.0868 131.26 96.3977 127.281 98.6158C119.344 103.029 111.168 107.056 102.645 110.186C99.3834 111.384 95.9754 112.458 92.4748 112.597C89.5923 112.713 86.0066 111.121 84.2215 114.328C83.0314 116.477 83.3714 119.128 83.9278 121.524C86.1302 130.922 91.4624 139.802 99.5534 145.073C104.947 148.582 111.346 150.375 117.768 150.784C130.565 151.588 143.919 146.541 151.932 136.525C156.523 130.79 159.235 123.719 160.58 116.492C161.924 109.266 161.947 101.87 161.6 94.5274C165.409 104.165 165.734 115.14 162.512 124.986C157.674 139.756 145.603 150.514 130.642 154.278L130.635 154.27Z" fill="white"/>
<path d="M284.649 147.592C262.323 163.019 231.482 156.14 218.43 132.297C214.241 124.654 212.271 115.99 212.989 107.287C213.654 99.2419 215.439 91.4977 222.417 86.59C227.162 83.2512 232.927 81.69 238.638 80.693C246.087 79.3869 253.684 78.9309 261.242 79.3328C265.136 79.5414 269.016 79.9743 272.864 80.6312C275.832 81.1413 279.054 81.4195 281.272 83.7149C267.37 91.5595 253.46 99.4042 239.557 107.249C236.451 109.003 233.313 110.765 229.906 111.832C228.375 112.311 226.791 112.636 225.192 112.744C223.592 112.852 221.961 112.381 220.516 113.038C218.414 113.996 218.801 116.964 218.948 118.811C219.133 121.044 219.604 123.247 220.323 125.373C221.768 129.639 224.187 133.534 227.154 136.904C231.42 141.75 236.853 145.614 242.78 148.149C247.548 150.189 252.695 151.364 257.888 151.472C271.852 151.751 285.847 144.022 292.477 131.733C295.329 126.447 296.797 120.534 297.369 114.583C297.663 111.561 297.724 108.524 297.639 105.487C297.593 103.964 297.516 102.449 297.4 100.927C297.315 99.7287 296.758 97.7502 297.145 96.6682C297.632 96.7764 297.933 97.1551 298.219 97.5802C299.015 98.7781 299.425 100.386 299.819 101.761C300.267 103.315 300.607 104.899 300.846 106.491C301.387 110 301.48 113.579 301.194 117.111C300.885 120.913 300.128 124.677 298.899 128.294C297.624 132.042 295.831 135.628 293.528 138.851C291.094 142.252 288.08 145.228 284.641 147.608L284.649 147.592Z" fill="white"/>
<path d="M135.117 171.714C134.151 176.753 132.327 181.622 129.746 186.058C127.281 190.301 124.151 194.119 121.547 198.285C116.639 206.16 113.68 215.188 108.162 222.638C107.691 223.272 106.833 224.408 106.022 224.694C105.983 224.709 105.952 224.725 105.913 224.732C105.875 224.748 105.836 224.756 105.797 224.763C105.357 224.872 105.094 224.872 104.893 224.763C104.561 224.137 104.229 223.496 103.904 222.854C103.495 222.043 103.062 221.2 102.621 220.327C101.957 218.913 101.315 217.483 100.689 216.053C99.8393 214.136 99.0279 212.22 98.2319 210.28C97.011 207.32 95.8286 204.336 94.6463 201.361C93.348 198.099 92.042 194.799 91.5242 191.329C90.8442 186.777 92.467 182.634 93.0543 178.214C93.773 172.757 94.484 167.293 95.2027 161.836C95.589 161.798 95.9522 161.813 96.3 161.875C96.5241 161.914 96.7405 161.976 96.9569 162.068C97.3819 162.231 97.7837 162.478 98.1701 162.779C108.711 170.995 120.086 173.043 132.528 167.533C132.76 167.432 132.991 167.277 133.246 167.131C134.73 166.25 135.294 166.876 135.457 167.942C135.457 167.958 135.464 167.973 135.464 167.988C135.611 169.179 135.287 170.856 135.124 171.706L135.117 171.714Z" fill="#210C0C"/>
<path d="M95.2027 161.836C95.589 161.798 95.9522 161.813 96.3 161.875C95.9445 161.806 95.5813 161.79 95.2027 161.836Z" fill="#210C0C"/>
<path d="M284.842 46.3313C284.796 46.3931 284.734 46.455 284.664 46.5091C284.046 46.9805 283.181 46.4936 282.57 46.0221C272.972 38.5717 263.668 32.041 252.787 26.6C248.012 24.4978 243.035 22.8516 237.927 21.7618C223.368 18.6549 208.677 17.7584 193.848 18.6781C179.876 19.5514 166.159 21.7464 153.192 27.2183C146.245 30.1474 139.831 34.2205 133.896 38.8499C129.499 42.2815 125.426 46.1072 121.268 49.8169C120.673 50.3502 119.731 50.8835 119.174 50.3116C118.656 49.7783 119.097 48.9049 119.545 48.3176C130.727 33.7567 144.885 19.1495 163.439 15.1306C183.152 10.8566 203.507 10.7253 223.569 11.6218C232.587 12.0314 241.551 13.6235 250.206 16.3208C264.34 20.7416 274.974 33.1153 284.209 43.9972C284.773 44.6619 285.306 45.7053 284.835 46.3313H284.842Z" fill="white"/>
<path d="M403 54.8251C402.312 67.361 400.342 79.6342 396.308 91.5441C395.087 95.1379 393.649 98.6545 390.96 100.942C393.394 88.128 393.711 74.8424 392.923 61.495C392.544 55.142 392.529 55.3584 386.455 53.3876C371.957 48.6885 357.777 43.1162 343.828 36.9487C337.213 34.0195 330.591 31.0903 323.968 28.1843C320.653 26.7314 317.338 25.2784 314.022 23.8254C311.959 22.9288 309.958 21.6304 307.809 20.9889C305.491 20.3011 303.227 19.5746 300.947 18.7631C296.596 17.2096 292.045 16.2126 287.439 15.7953C285.066 15.5789 282.686 15.517 280.306 15.6021C277.926 15.6871 275.77 16.3363 273.498 16.2976C272.03 16.2667 270.53 15.1538 269.271 14.4969C273.861 13.6699 277.764 12.8352 281.713 12.2787C285.963 11.6759 290.252 11.3745 294.502 10.8644C299.904 10.2152 304.865 11.4904 309.695 13.8708C332.237 25.0001 355.296 34.916 378.951 43.4253C385.891 45.9139 392.9 48.2094 399.963 50.327C402.529 51.0922 403.155 52.1974 403 54.8406V54.8251Z" fill="white"/>
<path d="M252.556 66.9746C251.373 68.0798 249.426 67.9175 247.927 68.1957C245.941 68.559 243.962 68.9531 241.992 69.3937C235.601 70.808 229.465 73.1962 223.654 76.1872C222.232 76.9214 220.833 77.6943 219.434 78.4826C218.445 79.0545 217.464 80.1675 216.421 80.5462C213.994 81.4118 210.918 79.1318 209.798 77.1069C208.376 74.5178 208.569 71.2254 209.821 68.559C211.637 64.656 215.478 62.0051 219.566 60.7917C223.654 59.5783 228.004 59.6478 232.262 59.9879C239.503 60.5675 247.069 62.1133 252.548 66.9823L252.556 66.9746Z" fill="white"/>
<path d="M136.971 14.7519C136.546 14.6901 136.106 14.636 135.681 14.5664C134.313 14.2418 132.922 13.9868 131.515 13.894C130.302 13.8167 129.151 13.979 127.938 13.9172C125.125 13.7704 122.289 13.979 119.522 14.5432C115.697 15.3238 112.034 16.6841 108.502 18.2684C104.878 19.8915 101.238 21.4836 97.6214 23.1375C95.9754 23.8872 94.3449 24.6601 92.7143 25.4484C74.3917 34.3441 55.961 42.9925 37.1748 50.8603C32.4377 52.8466 27.5382 54.3923 22.4456 55.0724C20.3746 55.3507 20.7069 56.68 20.5523 57.8548C19.115 68.8449 17.3299 79.8274 19.3623 90.949C19.6095 92.2938 19.3932 93.7158 19.3932 95.6867C15.877 90.2766 14.5015 84.6733 13.3269 79.0236C11.6577 70.9703 11.0163 62.7857 10.4367 54.601C10.2589 52.1587 10.8463 51.0303 13.35 50.3966C36.4484 44.5923 57.9857 34.7692 79.3221 24.4514C87.4594 20.5175 95.6972 16.7768 103.827 12.8197C107.923 10.8257 112.126 10.3002 116.647 10.6248C122.721 11.0653 128.741 11.7609 134.692 13.0516C135.642 13.2603 136.956 13.1675 136.964 14.7364L136.971 14.7519Z" fill="white"/>
<path d="M174.057 75.2057C172.967 77.2074 171.028 78.6836 168.895 79.1473C166.244 79.7192 164.042 78.6681 162.071 77.0064C159.961 75.2366 157.728 73.6058 155.417 72.1219C152.427 70.2129 149.289 68.5513 146.059 67.1137C142.69 65.6143 139.158 64.6946 135.627 63.6513C135.518 63.6204 135.379 63.5663 135.356 63.4349C135.333 63.3189 135.433 63.203 135.534 63.1257C136.492 62.2756 137.504 61.5027 138.571 60.8148C144.359 57.0587 152.295 55.1033 158.957 56.0617C166.422 57.136 179.404 65.4211 174.065 75.2057H174.057Z" fill="white"/>
<path d="M255.461 236.217C255.059 235.962 254.611 235.746 254.171 235.529C254.163 235.529 254.163 235.522 254.155 235.522H254.712L254.719 235.529C254.974 235.754 255.229 235.985 255.461 236.217Z" fill="#210C0C"/>
<path d="M255.461 236.217C255.059 235.962 254.611 235.746 254.171 235.529C254.163 235.529 254.163 235.522 254.155 235.522H254.712L254.719 235.529C254.974 235.754 255.229 235.985 255.461 236.217Z" fill="#210C0C"/>
<path d="M205.926 186.808C206.189 187.341 206.266 187.843 206.034 188.269C205.833 188.64 205.277 188.508 204.891 188.338C189.621 181.467 170.61 182.101 154.668 186.244C153.493 186.545 146.005 189.776 146.538 187.426C146.979 185.471 150.874 183.508 152.481 182.743C154.846 181.614 157.388 180.903 159.938 180.347C171.437 177.843 183.492 177.781 194.968 180.408C197.178 180.911 199.389 181.529 201.367 182.627C202.256 183.121 205.084 185.1 205.934 186.808H205.926Z" fill="white"/>
<path d="M313.304 241.419C313.304 241.419 313.265 241.457 313.242 241.473C313.25 241.442 313.25 241.411 313.257 241.38L313.304 241.419Z" fill="#210C0C"/>
<path d="M205.725 94.8442C205.416 95.9958 204.906 95.9494 203.94 95.4548C193.423 89.952 182.982 90.8562 172.612 95.9108C170.834 90.0447 170.873 89.8051 176.7 87.9425C186.027 84.9824 195.084 85.7785 204.033 89.7665C206.915 91.0572 206.282 92.7652 205.725 94.8365V94.8442Z" fill="white"/>
<path d="M181.259 291.98C176.228 291.663 171.167 290.759 166.445 289.105C159.699 286.747 153.524 282.721 148.741 277.403C147.883 276.453 145.433 274.204 146.778 272.743C147.172 272.318 147.79 272.156 148.37 272.194C149.823 272.295 150.966 273.454 151.84 274.621C153.176 276.414 154.66 277.697 156.368 279.127C165.015 286.361 175.479 289.568 186.491 291.006C187.086 291.083 191.328 290.434 191.097 291.616C190.942 292.397 185.502 292.119 184.713 292.111C183.57 292.096 182.418 292.057 181.267 291.987L181.259 291.98Z" fill="white"/>
<path d="M313.512 89.4805C310.328 89.9056 307.145 90.0061 304.023 89.0014C302.377 88.4681 301.241 87.3629 301.279 85.7012C301.326 83.7304 303.157 83.4521 304.649 83.2126C306.04 82.9884 307.492 83.058 309.03 82.9807C310.336 83.0425 311.758 83.0734 313.172 83.1971C315.035 83.344 315.382 84.7042 315.452 86.2345C315.522 87.7493 315.375 89.2332 313.512 89.4883V89.4805Z" fill="white"/>
<path d="M77.7147 85.7089C77.6761 87.0228 76.996 87.9734 75.9605 88.6072C73.959 89.836 71.6561 89.6815 69.6546 89.8438C68.3641 89.7588 67.3054 89.6583 66.2467 89.6042C64.7166 89.5114 64.2993 88.3985 64.137 87.2006C63.9515 85.9021 63.8279 84.4878 65.443 83.9159C68.7196 82.772 72.0502 82.0146 75.4427 83.3749C76.4783 83.7845 77.7688 84.1245 77.7224 85.7089H77.7147Z" fill="white"/>
<path d="M182.743 391.231C184.783 391.726 186.429 392.499 185.579 395.104L185.494 395.389C185.401 394.848 185.123 394.485 184.551 394.4L184.636 394.331C184.003 393.295 183.377 392.259 182.743 391.224V391.231Z" fill="#210C0C"/>
<path d="M313.311 241.396C313.311 241.396 313.304 241.411 313.304 241.419L313.257 241.38C313.257 241.38 313.296 241.396 313.311 241.396Z" fill="#210C0C"/>
<path d="M95.2722 160.955C95.2104 161.025 95.1563 161.094 95.0867 161.172C94.8781 161.079 94.8085 160.917 94.8781 160.708C95.0094 160.793 95.1408 160.886 95.2645 160.963L95.2722 160.955Z" fill="#210C0C"/>
<path d="M185.494 395.389C185.401 394.848 185.123 394.485 184.551 394.4C184.636 394.941 184.961 395.266 185.494 395.389Z" fill="#210C0C"/>
<path d="M255.461 236.217C255.059 235.962 254.611 235.746 254.171 235.529C254.163 235.529 254.163 235.522 254.155 235.522H254.712L254.719 235.529C254.974 235.754 255.229 235.985 255.461 236.217Z" fill="#210C0C"/>
<path d="M163.586 227.855C161.615 228.21 158.601 228.566 154.992 228.156C153.841 228.025 152.62 227.816 151.353 227.507C148.2 226.734 143.432 225.552 139.784 221.44C134.491 215.458 135.364 207.552 135.573 205.929C136.16 208.75 137.636 213.742 141.693 218.387C144.405 221.494 147.527 223.581 150.564 224.98C156.584 227.778 162.241 227.863 163.578 227.863L163.586 227.855Z" fill="white"/>
<path d="M232.262 385.381C232.232 385.582 232.177 385.775 232.123 385.968C231.613 387.607 230.253 388.812 228.947 389.925C222.185 395.675 215.354 401.341 208.445 406.905C207.109 407.987 205.602 409.116 203.886 409.054C202.619 409.007 201.483 408.32 200.409 407.647C193.392 403.273 186.359 398.883 179.768 393.89C176.043 391.069 172.295 387.823 170.803 383.395C169.242 378.773 170.425 373.726 171.607 368.988C173.732 360.494 175.888 351.916 179.783 344.071C181.877 339.843 184.497 335.848 187.735 332.401C190.138 329.835 195.161 325.213 198.84 324.912C204.164 324.479 207.371 329.363 209.496 333.429C217.41 348.585 224.643 364.088 231.157 379.893C231.876 381.64 232.595 383.541 232.278 385.365L232.262 385.381Z" fill="white"/>
</svg>
